<svg width="132" height="132" viewBox="0 0 132 132" fill="none" xmlns="http://www.w3.org/2000/svg">
<path d="M131.834 66.0003C131.834 29.7262 102.274 0.166992 66.0003 0.166992C29.7262 0.166992 0.166992 29.7262 0.166992 66.0003C0.166992 85.092 8.39616 102.274 21.4312 114.322C21.4312 114.388 21.4312 114.388 21.3653 114.454C22.0237 115.112 22.8137 115.639 23.472 116.231C23.867 116.56 24.1962 116.889 24.5912 117.153C25.7762 118.14 27.0928 119.062 28.3437 119.984C28.8045 120.313 29.1995 120.576 29.6603 120.905C30.9112 121.761 32.2278 122.551 33.6103 123.275C34.0712 123.539 34.5978 123.868 35.0587 124.131C36.3753 124.855 37.7578 125.514 39.2062 126.106C39.7328 126.369 40.2595 126.633 40.7862 126.83C42.2345 127.423 43.6828 127.949 45.1312 128.41C45.6578 128.608 46.1845 128.805 46.7112 128.937C48.2912 129.398 49.8712 129.793 51.4512 130.188C51.912 130.319 52.3728 130.451 52.8995 130.517C54.7428 130.912 56.5862 131.175 58.4953 131.373C58.7587 131.373 59.022 131.439 59.2853 131.504C61.5237 131.702 63.762 131.834 66.0003 131.834C68.2387 131.834 70.477 131.702 72.6495 131.504C72.9128 131.504 73.1762 131.439 73.4395 131.373C75.3487 131.175 77.192 130.912 79.0353 130.517C79.4962 130.451 79.957 130.254 80.4837 130.188C82.0637 129.793 83.7095 129.464 85.2237 128.937C85.7503 128.739 86.277 128.542 86.8036 128.41C88.252 127.884 89.7662 127.423 91.1487 126.83C91.6753 126.633 92.202 126.369 92.7287 126.106C94.1112 125.514 95.4937 124.855 96.8762 124.131C97.4028 123.868 97.8637 123.539 98.3245 123.275C99.6412 122.485 100.958 121.761 102.274 120.905C102.735 120.642 103.13 120.313 103.591 119.984C104.908 119.062 106.159 118.14 107.344 117.153C107.739 116.824 108.068 116.494 108.463 116.231C109.187 115.639 109.911 115.046 110.569 114.454C110.569 114.388 110.569 114.388 110.504 114.322C123.604 102.274 131.834 85.092 131.834 66.0003ZM98.522 98.7195C80.6812 86.7378 51.4512 86.7378 33.4787 98.7195C30.582 100.629 28.212 102.867 26.237 105.303C16.2303 95.1645 10.042 81.2737 10.042 66.0003C10.042 35.1245 35.1245 10.042 66.0003 10.042C96.8762 10.042 121.959 35.1245 121.959 66.0003C121.959 81.2737 115.77 95.1645 105.764 105.303C103.854 102.867 101.419 100.629 98.522 98.7195Z" fill="#095F90"/>
</svg>
