<svg width="18" height="20" viewBox="0 0 18 20" fill="none" xmlns="http://www.w3.org/2000/svg">
<path d="M8.45323 19.7031H8.37511C7.71886 19.6718 7.14073 19.2031 6.96886 18.5468C6.76573 17.7656 7.17198 16.9687 7.93761 16.6875C8.10948 16.625 8.29698 16.5937 8.46886 16.5937C9.06261 16.5937 9.60948 16.9375 9.85948 17.4687C9.92198 17.5937 10.0001 17.6093 10.047 17.6093H10.1095C12.7501 17.1718 14.7032 15.7343 15.922 13.3437C15.9376 13.3281 15.9376 13.2969 15.9532 13.2656L16.0001 13.1406L15.8595 13.1562L15.7657 13.1719C15.7032 13.1719 15.672 13.1875 15.6251 13.1875H15.5001C14.3439 13.1875 13.4064 12.25 13.4064 11.0937V8.93747C13.4064 7.78122 14.3439 6.84372 15.5001 6.84372H15.6251C15.7657 6.84372 15.8907 6.8906 16.0314 6.92185C16.0939 6.93747 16.172 6.9531 16.2345 6.96872L16.2814 6.98435L16.4064 7.03122L16.3751 6.8906C15.7189 4.1406 13.0314 1.3281 9.20323 1.23435H9.00011C5.09386 1.23435 2.32823 4.06248 1.60948 6.85935L1.57823 6.98435L1.70323 6.9531C1.75011 6.93747 1.79698 6.93747 1.84386 6.92185C1.95323 6.8906 2.04698 6.85935 2.15636 6.84372C2.26573 6.8281 2.39073 6.81247 2.50011 6.81247C3.48448 6.81247 4.39073 7.56247 4.54698 8.53122C4.56261 8.65622 4.57823 8.81248 4.57823 8.96873V11.0781C4.57823 12.0937 3.90636 12.9218 2.90636 13.1406C2.76573 13.1718 2.62511 13.1875 2.48448 13.1875C1.46886 13.1875 0.593859 12.4375 0.421984 11.4531C0.406359 11.3125 0.390734 11.2031 0.390734 11.0937V10.4687C0.390734 9.92185 0.375109 9.35935 0.390734 8.81248C0.453234 6.06247 1.59386 3.79685 3.75011 2.09373C4.82823 1.23435 6.09386 0.687475 7.50011 0.437475C8.18761 0.312475 8.90636 0.2656 9.59386 0.3281C9.70323 0.343725 9.82823 0.343725 9.93761 0.35935C11.1564 0.48435 12.297 0.85935 13.3126 1.46873C15.3595 2.67185 16.7032 4.4531 17.3282 6.73435C17.5157 7.40622 17.6095 8.12497 17.6095 8.87497V11.0781C17.6095 11.4062 17.5314 11.7187 17.3907 12.0468C17.3439 12.1406 17.3126 12.25 17.297 12.3593C17.2814 12.3906 17.2814 12.4375 17.2657 12.4687C16.3595 15.5156 13.8595 17.8125 10.7501 18.4531C10.5626 18.4843 10.3595 18.5312 10.1095 18.5625C9.98448 18.5781 9.95323 18.6562 9.92198 18.7187C9.67198 19.2969 9.10948 19.7031 8.45323 19.7031ZM15.5314 7.74997H15.4064C14.797 7.81247 14.3595 8.31247 14.3595 8.90622V11.0781C14.3595 11.1719 14.3751 11.2656 14.3907 11.3593C14.5157 11.8906 14.9845 12.2656 15.5157 12.2656C15.5626 12.2656 15.6095 12.2656 15.6564 12.25C16.2657 12.1719 16.7032 11.6875 16.7032 11.0937V8.92185C16.7032 8.8281 16.6876 8.73435 16.672 8.65623C16.5314 8.12497 16.0626 7.74997 15.5314 7.74997ZM2.48448 7.74997C1.82823 7.74997 1.32823 8.2656 1.32823 8.92185V11.0625C1.32823 11.1562 1.34386 11.25 1.35948 11.3281C1.48448 11.8594 1.95323 12.2344 2.48448 12.2344H2.60948C3.21886 12.1719 3.65636 11.6719 3.65636 11.0781V8.92185C3.64073 8.2656 3.14073 7.74997 2.48448 7.74997Z" fill="#13A3D9"/>
</svg>
